<svg width="2305" height="3406" viewBox="0 0 2305 3406" fill="none" xmlns="http://www.w3.org/2000/svg">
<rect width="1970" height="3187" transform="translate(160)" fill="#F8CAFF"/>
<rect x="1129" y="18" width="392" height="377" rx="188.5" fill="#E45CF4"/>
<rect x="795" y="2613" width="700" height="673" rx="336.5" fill="#715811"/>
<rect x="259" y="1266" width="625" height="602" rx="301" fill="#58648A"/>
<rect x="1359" y="1807" width="625" height="602" rx="301" fill="#D76F5B"/>
<rect x="1355" y="283" width="500" height="480" rx="240" fill="#47A119"/>
<rect x="1355" y="1407" width="500" height="481" rx="240.5" fill="#47A119"/>
<rect x="1067" y="159" width="420" height="403" rx="201.5" fill="#3E93EF"/>
<rect x="1067" y="1283" width="420" height="403" rx="201.5" fill="#3E93EF"/>
<rect x="850" y="1063" width="625" height="601" rx="300.5" fill="#4291F5"/>
<rect x="850" y="2187" width="625" height="601" rx="300.5" fill="#4291F5"/>
<rect x="498" y="499" width="625" height="601" rx="300.5" fill="#7D5435"/>
<rect x="498" y="1623" width="625" height="602" rx="301" fill="#7D5435"/>
<rect x="1605" y="76" width="700" height="673" rx="336.5" fill="#715811"/>
<rect x="1538" y="1686" width="700" height="673" rx="336.5" fill="#5C7CFC"/>
<rect x="1258" y="934" width="499" height="481" rx="240.5" fill="#47A119"/>
<rect x="1258" y="2059" width="499" height="480" rx="240" fill="#47A119"/>
<rect x="758" y="51" width="500" height="480" rx="240" fill="#47A119"/>
<rect x="758" y="1175" width="500" height="480" rx="240" fill="#47A119"/>
<rect x="1030" y="531" width="419" height="403" rx="201.5" fill="#E45CF4"/>
<rect x="1030" y="1655" width="419" height="404" rx="202" fill="#E45CF4"/>
<rect x="1622" y="2133" width="420" height="403" rx="201.5" fill="#E45CF4"/>
<rect x="1310" y="561" width="625" height="601" rx="300.5" fill="#7D7DFD"/>
<rect x="572" y="934" width="477" height="460" rx="230" fill="#50B614"/>
<rect x="572" y="2059" width="477" height="460" rx="230" fill="#50B614"/>
<rect x="924" y="862" width="477" height="460" rx="230" fill="#DA6236"/>
<rect x="924" y="1986" width="477" height="460" rx="230" fill="#DA6236"/>
<rect x="405" y="132" width="625" height="601" rx="300.5" fill="#4291F5"/>
<rect x="160" y="800" width="547" height="526" rx="263" fill="#ED7BD0"/>
<rect y="1924" width="867" height="834" rx="417" fill="#ED7BD0"/>
<rect x="1413" y="2564" width="875" height="842" rx="421" fill="#4291F5"/>
<rect x="1225" y="2488" width="625" height="602" rx="301" fill="#58648A"/>
<rect x="181.812" y="798" width="985" height="947" rx="473.5" fill="#47A119"/>
<rect x="1184.81" y="798" width="891" height="856" rx="428" fill="#ED7BD0"/>
</svg>
